<?xml version="1.0" encoding="utf-8"?>
<!-- Generator: Adobe Illustrator 23.1.0, SVG Export Plug-In . SVG Version: 6.00 Build 0)  -->
<svg version="1.2" baseProfile="tiny" id="svg_circle"
	 xmlns="http://www.w3.org/2000/svg" xmlns:xlink="http://www.w3.org/1999/xlink" x="0px" y="0px" width="870px" height="870px"
	 viewBox="0 0 870 870" xml:space="preserve">
<rect x="299.9" y="23.1" fill="#8E9CAB" width="33" height="33"/>
<rect x="339.4" y="23.1" fill="#8E9CAB" width="33" height="33"/>
<rect x="379" y="23.1" fill="#8E9CAB" width="33" height="33"/>
<rect x="418.5" y="23.1" fill="#8E9CAB" width="33" height="33"/>
<rect x="458.1" y="23.1" fill="#8E9CAB" width="33" height="33"/>
<rect x="497.6" y="23.1" fill="#8E9CAB" width="33" height="33"/>
<rect x="537.2" y="23.1" fill="#8E9CAB" width="33" height="33"/>
<rect x="220.8" y="62.6" fill="#8E9CAB" width="33" height="33"/>
<rect x="260.3" y="62.6" fill="#8E9CAB" width="33" height="33"/>
<rect x="299.9" y="62.6" fill="#8E9CAB" width="33" height="33"/>
<rect x="537.2" y="62.6" fill="#8E9CAB" width="33" height="33"/>
<rect x="576.7" y="62.6" fill="#8E9CAB" width="33" height="33"/>
<rect x="616.3" y="62.6" fill="#CAD9E9" width="33" height="33"/>
<rect x="181.3" y="102.2" fill="#8E9CAB" width="33" height="33"/>
<rect x="220.8" y="102.2" fill="#8E9CAB" width="33" height="33"/>
<rect x="616.3" y="102.2" fill="#CAD9E9" width="33" height="33"/>
<rect x="655.8" y="102.2" fill="#CAD9E9" width="33" height="33"/>
<rect x="141.7" y="141.7" fill="#8E9CAB" width="33" height="33"/>
<rect x="181.3" y="141.7" fill="#8E9CAB" width="33" height="33"/>
<rect x="655.8" y="141.7" fill="#CAD9E9" width="33" height="33"/>
<rect x="695.3" y="141.7" fill="#CAD9E9" width="33" height="33"/>
<rect x="102.2" y="181.3" fill="#8E9CAB" width="33" height="33"/>
<rect x="141.7" y="181.3" fill="#8E9CAB" width="33" height="33"/>
<rect x="695.3" y="181.3" fill="#8E9CAB" width="33" height="33"/>
<rect x="734.9" y="181.3" fill="#8E9CAB" width="33" height="33"/>
<rect x="62.6" y="220.8" fill="#8E9CAB" width="33" height="33"/>
<rect x="102.2" y="220.8" fill="#8E9CAB" width="33" height="33"/>
<rect x="734.9" y="220.8" fill="#8E9CAB" width="33" height="33"/>
<rect x="774.4" y="220.8" fill="#8E9CAB" width="33" height="33"/>
<rect x="62.6" y="260.3" fill="#8E9CAB" width="33" height="33"/>
<rect x="774.4" y="260.3" fill="#8E9CAB" width="33" height="33"/>
<rect x="23.1" y="299.9" fill="#8E9CAB" width="33" height="33"/>
<rect x="62.6" y="299.9" fill="#8E9CAB" width="33" height="33"/>
<rect x="774.4" y="299.9" fill="#8E9CAB" width="33" height="33"/>
<rect x="814" y="299.9" fill="#8E9CAB" width="33" height="33"/>
<rect x="23.1" y="339.4" fill="#8E9CAB" width="33" height="33"/>
<rect x="814" y="339.4" fill="#8E9CAB" width="33" height="33"/>
<rect x="23.1" y="379" fill="#8E9CAB" width="33" height="33"/>
<rect x="814" y="379" fill="#8E9CAB" width="33" height="33"/>
<rect x="23.1" y="418.5" fill="#8E9CAB" width="33" height="33"/>
<rect x="814" y="418.5" fill="#8E9CAB" width="33" height="33"/>
<rect x="23.1" y="458.1" fill="#8E9CAB" width="33" height="33"/>
<rect x="814" y="458.1" fill="#8E9CAB" width="33" height="33"/>
<rect x="23.1" y="497.6" fill="#8E9CAB" width="33" height="33"/>
<rect x="814" y="497.6" fill="#8E9CAB" width="33" height="33"/>
<rect x="23.1" y="537.2" fill="#8E9CAB" width="33" height="33"/>
<rect x="62.6" y="537.2" fill="#8E9CAB" width="33" height="33"/>
<rect x="774.4" y="537.2" fill="#8E9CAB" width="33" height="33"/>
<rect x="814" y="537.2" fill="#8E9CAB" width="33" height="33"/>
<rect x="62.6" y="576.7" fill="#8E9CAB" width="33" height="33"/>
<rect x="774.4" y="576.7" fill="#8E9CAB" width="33" height="33"/>
<rect x="62.6" y="616.3" fill="#8E9CAB" width="33" height="33"/>
<rect x="102.2" y="616.3" fill="#8E9CAB" width="33" height="33"/>
<rect x="734.9" y="616.3" fill="#5F6872" width="33" height="33"/>
<rect x="774.4" y="616.3" fill="#8E9CAB" width="33" height="33"/>
<rect x="102.2" y="655.8" fill="#8E9CAB" width="33" height="33"/>
<rect x="141.7" y="655.8" fill="#8E9CAB" width="33" height="33"/>
<rect x="695.3" y="655.8" fill="#8E9CAB" width="33" height="33"/>
<rect x="734.9" y="655.8" fill="#8E9CAB" width="33" height="33"/>
<rect x="141.7" y="695.3" fill="#8E9CAB" width="33" height="33"/>
<rect x="181.3" y="695.3" fill="#8E9CAB" width="33" height="33"/>
<rect x="655.8" y="695.3" fill="#8E9CAB" width="33" height="33"/>
<rect x="695.3" y="695.3" fill="#8E9CAB" width="33" height="33"/>
<rect x="181.3" y="734.9" fill="#8E9CAB" width="33" height="33"/>
<rect x="220.8" y="734.9" fill="#8E9CAB" width="33" height="33"/>
<rect x="616.3" y="734.9" fill="#CAD9E9" width="33" height="33"/>
<rect x="655.8" y="734.9" fill="#CAD9E9" width="33" height="33"/>
<rect x="220.8" y="774.4" fill="#8E9CAB" width="33" height="33"/>
<rect x="260.3" y="774.4" fill="#8E9CAB" width="33" height="33"/>
<rect x="299.9" y="774.4" fill="#8E9CAB" width="33" height="33"/>
<rect x="537.2" y="774.4" fill="#CAD9E9" width="33" height="33"/>
<rect x="576.7" y="774.4" fill="#CAD9E9" width="33" height="33"/>
<rect x="616.3" y="774.4" fill="#CAD9E9" width="33" height="33"/>
<rect x="299.9" y="814" fill="#8E9CAB" width="33" height="33"/>
<rect x="339.4" y="814" fill="#8E9CAB" width="33" height="33"/>
<rect x="379" y="814" fill="#8E9CAB" width="33" height="33"/>
<rect x="418.5" y="814" fill="#8E9CAB" width="33" height="33"/>
<rect x="458.1" y="814" fill="#CAD9E9" width="33" height="33"/>
<rect x="497.6" y="814" fill="#CAD9E9" width="33" height="33"/>
<rect x="537.2" y="814" fill="#CAD9E9" width="33" height="33"/>
<rect x="339.4" y="774.4" fill="#8E9CAB" width="33" height="33"/>
<rect x="379" y="774.4" fill="#8E9CAB" width="33" height="33"/>
<rect x="418.5" y="774.4" fill="#8E9CAB" width="33" height="33"/>
<rect x="458.1" y="774.4" fill="#CAD9E9" width="33" height="33"/>
<rect x="497.6" y="774.4" fill="#CAD9E9" width="33" height="33"/>
<rect x="260.3" y="734.9" fill="#5F6872" width="33" height="33"/>
<rect x="299.9" y="734.9" fill="#8E9CAB" width="33" height="33"/>
<rect x="537.2" y="734.9" fill="#CAD9E9" width="33" height="33"/>
<rect x="576.7" y="734.9" fill="#CAD9E9" width="33" height="33"/>
<rect x="339.4" y="734.9" fill="#8E9CAB" width="33" height="33"/>
<rect x="379" y="734.9" fill="#8E9CAB" width="33" height="33"/>
<rect x="418.5" y="734.9" fill="#8E9CAB" width="33" height="33"/>
<rect x="458.1" y="734.9" fill="#CAD9E9" width="33" height="33"/>
<rect x="497.6" y="734.9" fill="#CAD9E9" width="33" height="33"/>
<rect x="220.8" y="695.3" fill="#8E9CAB" width="33" height="33"/>
<rect x="616.3" y="695.3" fill="#CAD9E9" width="33" height="33"/>
<rect x="260.3" y="695.3" fill="#8E9CAB" width="33" height="33"/>
<rect x="299.9" y="695.3" fill="#5F6872" width="33" height="33"/>
<rect x="537.2" y="695.3" fill="#CAD9E9" width="33" height="33"/>
<rect x="576.7" y="695.3" fill="#CAD9E9" width="33" height="33"/>
<rect x="339.4" y="695.3" fill="#8E9CAB" width="33" height="33"/>
<rect x="379" y="695.3" fill="#8E9CAB" width="33" height="33"/>
<rect x="418.5" y="695.3" fill="#8E9CAB" width="33" height="33"/>
<rect x="458.1" y="695.3" fill="#8E9CAB" width="33" height="33"/>
<rect x="497.6" y="695.3" fill="#CAD9E9" width="33" height="33"/>
<rect x="181.3" y="655.8" fill="#5F6872" width="33" height="33"/>
<rect x="655.8" y="655.8" fill="#8E9CAB" width="33" height="33"/>
<rect x="220.8" y="655.8" fill="#8E9CAB" width="33" height="33"/>
<rect x="616.3" y="655.8" fill="#CAD9E9" width="33" height="33"/>
<rect x="260.3" y="655.8" fill="#8E9CAB" width="33" height="33"/>
<rect x="299.9" y="655.8" fill="#2F3439" width="33" height="33"/>
<rect x="537.2" y="655.8" fill="#CAD9E9" width="33" height="33"/>
<rect x="576.7" y="655.8" fill="#CAD9E9" width="33" height="33"/>
<rect x="339.4" y="655.8" fill="#8E9CAB" width="33" height="33"/>
<rect x="379" y="655.8" fill="#8E9CAB" width="33" height="33"/>
<rect x="418.5" y="655.8" fill="#8E9CAB" width="33" height="33"/>
<rect x="458.1" y="655.8" fill="#CAD9E9" width="33" height="33"/>
<rect x="497.6" y="655.8" fill="#CAD9E9" width="33" height="33"/>
<rect x="141.7" y="616.3" fill="#8E9CAB" width="33" height="33"/>
<rect x="695.3" y="616.3" fill="#8E9CAB" width="33" height="33"/>
<rect x="181.3" y="616.3" fill="#5F6872" width="33" height="33"/>
<rect x="655.8" y="616.3" fill="#8E9CAB" width="33" height="33"/>
<rect x="220.8" y="616.3" fill="#8E9CAB" width="33" height="33"/>
<rect x="616.3" y="616.3" fill="#CAD9E9" width="33" height="33"/>
<rect x="260.3" y="616.3" fill="#8E9CAB" width="33" height="33"/>
<rect x="299.9" y="616.3" fill="#2F3439" width="33" height="33"/>
<rect x="537.2" y="616.3" fill="#CAD9E9" width="33" height="33"/>
<rect x="576.7" y="616.3" fill="#CAD9E9" width="33" height="33"/>
<rect x="339.4" y="616.3" fill="#8E9CAB" width="33" height="33"/>
<rect x="379" y="616.3" fill="#8E9CAB" width="33" height="33"/>
<rect x="418.5" y="616.3" fill="#8E9CAB" width="33" height="33"/>
<rect x="458.1" y="616.3" fill="#CAD9E9" width="33" height="33"/>
<rect x="497.6" y="616.3" fill="#CAD9E9" width="33" height="33"/>
<rect x="102.2" y="576.7" fill="#8E9CAB" width="33" height="33"/>
<rect x="734.9" y="576.7" fill="#8E9CAB" width="33" height="33"/>
<rect x="141.7" y="576.7" fill="#8E9CAB" width="33" height="33"/>
<rect x="695.3" y="576.7" fill="#8E9CAB" width="33" height="33"/>
<rect x="181.3" y="576.7" fill="#8E9CAB" width="33" height="33"/>
<rect x="655.8" y="576.7" fill="#8E9CAB" width="33" height="33"/>
<rect x="220.8" y="576.7" fill="#2F3439" width="33" height="33"/>
<rect x="616.3" y="576.7" fill="#8E9CAB" width="33" height="33"/>
<rect x="260.3" y="576.7" fill="#2F3439" width="33" height="33"/>
<rect x="299.9" y="576.7" fill="#8E9CAB" width="33" height="33"/>
<rect x="537.2" y="576.7" fill="#CAD9E9" width="33" height="33"/>
<rect x="576.7" y="576.7" fill="#CAD9E9" width="33" height="33"/>
<rect x="339.4" y="576.7" fill="#8E9CAB" width="33" height="33"/>
<rect x="379" y="576.7" fill="#8E9CAB" width="33" height="33"/>
<rect x="418.5" y="576.7" fill="#CAD9E9" width="33" height="33"/>
<rect x="458.1" y="576.7" fill="#CAD9E9" width="33" height="33"/>
<rect x="497.6" y="576.7" fill="#CAD9E9" width="33" height="33"/>
<rect x="102.2" y="537.2" fill="#8E9CAB" width="33" height="33"/>
<rect x="734.9" y="537.2" fill="#8E9CAB" width="33" height="33"/>
<rect x="141.7" y="537.2" fill="#8E9CAB" width="33" height="33"/>
<rect x="695.3" y="537.2" fill="#8E9CAB" width="33" height="33"/>
<rect x="181.3" y="537.2" fill="#8E9CAB" width="33" height="33"/>
<rect x="655.8" y="537.2" fill="#8E9CAB" width="33" height="33"/>
<rect x="220.8" y="537.2" fill="#8E9CAB" width="33" height="33"/>
<rect x="616.3" y="537.2" fill="#8E9CAB" width="33" height="33"/>
<rect x="260.3" y="537.2" fill="#8E9CAB" width="33" height="33"/>
<rect x="299.9" y="537.2" fill="#8E9CAB" width="33" height="33"/>
<rect x="537.2" y="537.2" fill="#CAD9E9" width="33" height="33"/>
<rect x="576.7" y="537.2" fill="#2F3439" width="33" height="33"/>
<rect x="339.4" y="537.2" fill="#8E9CAB" width="33" height="33"/>
<rect x="379" y="537.2" fill="#8E9CAB" width="33" height="33"/>
<rect x="418.5" y="537.2" fill="#8E9CAB" width="33" height="33"/>
<rect x="458.1" y="537.2" fill="#CAD9E9" width="33" height="33"/>
<rect x="497.6" y="537.2" fill="#CAD9E9" width="33" height="33"/>
<rect x="62.6" y="497.6" fill="#8E9CAB" width="33" height="33"/>
<rect x="774.4" y="497.6" fill="#8E9CAB" width="33" height="33"/>
<rect x="102.2" y="497.6" fill="#5F6872" width="33" height="33"/>
<rect x="734.9" y="497.6" fill="#8E9CAB" width="33" height="33"/>
<rect x="141.7" y="497.6" fill="#8E9CAB" width="33" height="33"/>
<rect x="695.3" y="497.6" fill="#8E9CAB" width="33" height="33"/>
<rect x="181.3" y="497.6" fill="#8E9CAB" width="33" height="33"/>
<rect x="655.8" y="497.6" fill="#8E9CAB" width="33" height="33"/>
<rect x="220.8" y="497.6" fill="#8E9CAB" width="33" height="33"/>
<rect x="616.3" y="497.6" fill="#8E9CAB" width="33" height="33"/>
<rect x="260.3" y="497.6" fill="#8E9CAB" width="33" height="33"/>
<rect x="299.9" y="497.6" fill="#8E9CAB" width="33" height="33"/>
<rect x="537.2" y="497.6" fill="#8E9CAB" width="33" height="33"/>
<rect x="576.7" y="497.6" fill="#8E9CAB" width="33" height="33"/>
<rect x="339.4" y="497.6" fill="#8E9CAB" width="33" height="33"/>
<rect x="379" y="497.6" fill="#8E9CAB" width="33" height="33"/>
<rect x="418.5" y="497.6" fill="#CAD9E9" width="33" height="33"/>
<rect x="458.1" y="497.6" fill="#CAD9E9" width="33" height="33"/>
<rect x="497.6" y="497.6" fill="#8E9CAB" width="33" height="33"/>
<rect x="62.6" y="458.1" fill="#5F6872" width="33" height="33"/>
<rect x="774.4" y="458.1" fill="#8E9CAB" width="33" height="33"/>
<rect x="102.2" y="458.1" fill="#2F3439" width="33" height="33"/>
<rect x="734.9" y="458.1" fill="#8E9CAB" width="33" height="33"/>
<rect x="141.7" y="458.1" fill="#5F6872" width="33" height="33"/>
<rect x="695.3" y="458.1" fill="#8E9CAB" width="33" height="33"/>
<rect x="181.3" y="458.1" fill="#8E9CAB" width="33" height="33"/>
<rect x="655.8" y="458.1" fill="#8E9CAB" width="33" height="33"/>
<rect x="220.8" y="458.1" fill="#8E9CAB" width="33" height="33"/>
<rect x="616.3" y="458.1" fill="#8E9CAB" width="33" height="33"/>
<rect x="260.3" y="458.1" fill="#8E9CAB" width="33" height="33"/>
<rect x="299.9" y="458.1" fill="#8E9CAB" width="33" height="33"/>
<rect x="537.2" y="458.1" fill="#8E9CAB" width="33" height="33"/>
<rect x="576.7" y="458.1" fill="#8E9CAB" width="33" height="33"/>
<rect x="339.4" y="458.1" fill="#8E9CAB" width="33" height="33"/>
<rect x="379" y="458.1" fill="#CAD9E9" width="33" height="33"/>
<rect x="418.5" y="458.1" fill="#CAD9E9" width="33" height="33"/>
<rect x="458.1" y="458.1" fill="#8E9CAB" width="33" height="33"/>
<rect x="497.6" y="458.1" fill="#8E9CAB" width="33" height="33"/>
<rect x="62.6" y="418.5" fill="#8E9CAB" width="33" height="33"/>
<rect x="774.4" y="418.5" fill="#8E9CAB" width="33" height="33"/>
<rect x="102.2" y="418.5" fill="#5F6872" width="33" height="33"/>
<rect x="734.9" y="418.5" fill="#8E9CAB" width="33" height="33"/>
<rect x="141.7" y="418.5" fill="#8E9CAB" width="33" height="33"/>
<rect x="695.3" y="418.5" fill="#8E9CAB" width="33" height="33"/>
<rect x="181.3" y="418.5" fill="#8E9CAB" width="33" height="33"/>
<rect x="655.8" y="418.5" fill="#8E9CAB" width="33" height="33"/>
<rect x="220.8" y="418.5" fill="#8E9CAB" width="33" height="33"/>
<rect x="616.3" y="418.5" fill="#8E9CAB" width="33" height="33"/>
<rect x="260.3" y="418.5" fill="#8E9CAB" width="33" height="33"/>
<rect x="299.9" y="418.5" fill="#8E9CAB" width="33" height="33"/>
<rect x="537.2" y="418.5" fill="#8E9CAB" width="33" height="33"/>
<rect x="576.7" y="418.5" fill="#8E9CAB" width="33" height="33"/>
<rect x="339.4" y="418.5" fill="#CAD9E9" width="33" height="33"/>
<rect x="379" y="418.5" fill="#CAD9E9" width="33" height="33"/>
<rect x="418.5" y="418.5" fill="#8E9CAB" width="33" height="33"/>
<rect x="458.1" y="418.5" fill="#8E9CAB" width="33" height="33"/>
<rect x="497.6" y="418.5" fill="#8E9CAB" width="33" height="33"/>
<rect x="62.6" y="379" fill="#8E9CAB" width="33" height="33"/>
<rect x="774.4" y="379" fill="#8E9CAB" width="33" height="33"/>
<rect x="102.2" y="379" fill="#8E9CAB" width="33" height="33"/>
<rect x="734.9" y="379" fill="#8E9CAB" width="33" height="33"/>
<rect x="141.7" y="379" fill="#8E9CAB" width="33" height="33"/>
<rect x="695.3" y="379" fill="#8E9CAB" width="33" height="33"/>
<rect x="181.3" y="379" fill="#8E9CAB" width="33" height="33"/>
<rect x="655.8" y="379" fill="#8E9CAB" width="33" height="33"/>
<rect x="220.8" y="379" fill="#8E9CAB" width="33" height="33"/>
<rect x="616.3" y="379" fill="#5F6872" width="33" height="33"/>
<rect x="260.3" y="379" fill="#8E9CAB" width="33" height="33"/>
<rect x="299.9" y="379" fill="#8E9CAB" width="33" height="33"/>
<rect x="537.2" y="379" fill="#8E9CAB" width="33" height="33"/>
<rect x="576.7" y="379" fill="#5F6872" width="33" height="33"/>
<rect x="339.4" y="379" fill="#8E9CAB" width="33" height="33"/>
<rect x="379" y="379" fill="#CAD9E9" width="33" height="33"/>
<rect x="418.5" y="379" fill="#CAD9E9" width="33" height="33"/>
<rect x="458.1" y="379" fill="#8E9CAB" width="33" height="33"/>
<rect x="497.6" y="379" fill="#8E9CAB" width="33" height="33"/>
<rect x="62.6" y="340.2" fill="#8E9CAB" width="33" height="33"/>
<rect x="774.4" y="340.2" fill="#8E9CAB" width="33" height="33"/>
<rect x="102.2" y="340.2" fill="#8E9CAB" width="33" height="33"/>
<rect x="734.9" y="340.2" fill="#8E9CAB" width="33" height="33"/>
<rect x="141.7" y="340.2" fill="#8E9CAB" width="33" height="33"/>
<rect x="695.3" y="340.2" fill="#8E9CAB" width="33" height="33"/>
<rect x="181.3" y="340.2" fill="#8E9CAB" width="33" height="33"/>
<rect x="655.8" y="340.2" fill="#5F6872" width="33" height="33"/>
<rect x="220.8" y="340.2" fill="#8E9CAB" width="33" height="33"/>
<rect x="616.3" y="340.2" fill="#2F3439" width="33" height="33"/>
<rect x="260.3" y="340.2" fill="#8E9CAB" width="33" height="33"/>
<rect x="299.9" y="340.2" fill="#8E9CAB" width="33" height="33"/>
<rect x="537.2" y="340.2" fill="#5F6872" width="33" height="33"/>
<rect x="576.7" y="340.2" fill="#2F3439" width="33" height="33"/>
<rect x="339.4" y="340.2" fill="#8E9CAB" width="33" height="33"/>
<rect x="379" y="340.2" fill="#8E9CAB" width="33" height="33"/>
<rect x="418.5" y="340.2" fill="#CAD9E9" width="33" height="33"/>
<rect x="458.1" y="340.2" fill="#8E9CAB" width="33" height="33"/>
<rect x="497.6" y="340.2" fill="#8E9CAB" width="33" height="33"/>
<rect x="102.2" y="299.9" fill="#8E9CAB" width="33" height="33"/>
<rect x="734.9" y="299.9" fill="#8E9CAB" width="33" height="33"/>
<rect x="141.7" y="299.9" fill="#8E9CAB" width="33" height="33"/>
<rect x="695.3" y="299.9" fill="#8E9CAB" width="33" height="33"/>
<rect x="181.3" y="299.9" fill="#5F6872" width="33" height="33"/>
<rect x="655.8" y="299.9" fill="#5F6872" width="33" height="33"/>
<rect x="220.8" y="299.9" fill="#5F6872" width="33" height="33"/>
<rect x="616.3" y="299.9" fill="#2F3439" width="33" height="33"/>
<rect x="260.3" y="299.9" fill="#8E9CAB" width="33" height="33"/>
<rect x="299.9" y="299.9" fill="#8E9CAB" width="33" height="33"/>
<rect x="537.2" y="299.9" fill="#5F6872" width="33" height="33"/>
<rect x="576.7" y="299.9" fill="#2F3439" width="33" height="33"/>
<rect x="339.4" y="299.9" fill="#8E9CAB" width="33" height="33"/>
<rect x="379" y="299.9" fill="#8E9CAB" width="33" height="33"/>
<rect x="418.5" y="299.9" fill="#8E9CAB" width="33" height="33"/>
<rect x="458.1" y="299.9" fill="#8E9CAB" width="33" height="33"/>
<rect x="497.6" y="299.9" fill="#8E9CAB" width="33" height="33"/>
<rect x="102.2" y="260.3" fill="#8E9CAB" width="33" height="33"/>
<rect x="734.9" y="260.3" fill="#8E9CAB" width="33" height="33"/>
<rect x="141.7" y="260.3" fill="#8E9CAB" width="33" height="33"/>
<rect x="695.3" y="260.3" fill="#8E9CAB" width="33" height="33"/>
<rect x="181.3" y="260.3" fill="#5F6872" width="33" height="33"/>
<rect x="655.8" y="260.3" fill="#8E9CAB" width="33" height="33"/>
<rect x="220.8" y="260.3" fill="#5F6872" width="33" height="33"/>
<rect x="616.3" y="260.3" fill="#5F6872" width="33" height="33"/>
<rect x="260.3" y="260.3" fill="#8E9CAB" width="33" height="33"/>
<rect x="299.9" y="260.3" fill="#8E9CAB" width="33" height="33"/>
<rect x="537.2" y="260.3" fill="#8E9CAB" width="33" height="33"/>
<rect x="576.7" y="260.3" fill="#5F6872" width="33" height="33"/>
<rect x="339.4" y="260.3" fill="#8E9CAB" width="33" height="33"/>
<rect x="379" y="260.3" fill="#8E9CAB" width="33" height="33"/>
<rect x="418.5" y="260.3" fill="#8E9CAB" width="33" height="33"/>
<rect x="458.1" y="260.3" fill="#8E9CAB" width="33" height="33"/>
<rect x="497.6" y="260.3" fill="#8E9CAB" width="33" height="33"/>
<rect x="141.7" y="220.8" fill="#8E9CAB" width="33" height="33"/>
<rect x="695.3" y="220.8" fill="#8E9CAB" width="33" height="33"/>
<rect x="181.3" y="220.8" fill="#8E9CAB" width="33" height="33"/>
<rect x="655.8" y="220.8" fill="#8E9CAB" width="33" height="33"/>
<rect x="220.8" y="220.8" fill="#8E9CAB" width="33" height="33"/>
<rect x="616.3" y="220.8" fill="#8E9CAB" width="33" height="33"/>
<rect x="260.3" y="220.8" fill="#8E9CAB" width="33" height="33"/>
<rect x="299.9" y="220.8" fill="#8E9CAB" width="33" height="33"/>
<rect x="537.2" y="220.8" fill="#8E9CAB" width="33" height="33"/>
<rect x="576.7" y="220.8" fill="#8E9CAB" width="33" height="33"/>
<rect x="339.4" y="220.8" fill="#8E9CAB" width="33" height="33"/>
<rect x="379" y="220.8" fill="#8E9CAB" width="33" height="33"/>
<rect x="418.5" y="220.8" fill="#8E9CAB" width="33" height="33"/>
<rect x="458.1" y="220.8" fill="#8E9CAB" width="33" height="33"/>
<rect x="497.6" y="220.8" fill="#8E9CAB" width="33" height="33"/>
<rect x="181.3" y="181.3" fill="#8E9CAB" width="33" height="33"/>
<rect x="655.8" y="181.3" fill="#8E9CAB" width="33" height="33"/>
<rect x="220.8" y="181.3" fill="#8E9CAB" width="33" height="33"/>
<rect x="616.3" y="181.3" fill="#8E9CAB" width="33" height="33"/>
<rect x="260.3" y="181.3" fill="#8E9CAB" width="33" height="33"/>
<rect x="299.9" y="181.3" fill="#5F6872" width="33" height="33"/>
<rect x="537.2" y="181.3" fill="#CAD9E9" width="33" height="33"/>
<rect x="576.7" y="181.3" fill="#CAD9E9" width="33" height="33"/>
<rect x="339.4" y="181.3" fill="#8E9CAB" width="33" height="33"/>
<rect x="379" y="181.3" fill="#8E9CAB" width="33" height="33"/>
<rect x="418.5" y="181.3" fill="#8E9CAB" width="33" height="33"/>
<rect x="458.1" y="181.3" fill="#8E9CAB" width="33" height="33"/>
<rect x="497.6" y="181.3" fill="#8E9CAB" width="33" height="33"/>
<rect x="220.8" y="141.7" fill="#8E9CAB" width="33" height="33"/>
<rect x="616.3" y="141.7" fill="#CAD9E9" width="33" height="33"/>
<rect x="260.3" y="141.7" fill="#5F6872" width="33" height="33"/>
<rect x="299.9" y="141.7" fill="#2F3439" width="33" height="33"/>
<rect x="537.2" y="141.7" fill="#8E9CAB" width="33" height="33"/>
<rect x="576.7" y="141.7" fill="#CAD9E9" width="33" height="33"/>
<rect x="339.4" y="141.7" fill="#5F6872" width="33" height="33"/>
<rect x="379" y="141.7" fill="#8E9CAB" width="33" height="33"/>
<rect x="418.5" y="141.7" fill="#8E9CAB" width="33" height="33"/>
<rect x="458.1" y="141.7" fill="#8E9CAB" width="33" height="33"/>
<rect x="497.6" y="141.7" fill="#8E9CAB" width="33" height="33"/>
<rect x="260.3" y="102.2" fill="#8E9CAB" width="33" height="33"/>
<rect x="299.9" y="102.2" fill="#5F6872" width="33" height="33"/>
<rect x="537.2" y="102.2" fill="#8E9CAB" width="33" height="33"/>
<rect x="576.7" y="102.2" fill="#8E9CAB" width="33" height="33"/>
<rect x="339.4" y="102.2" fill="#8E9CAB" width="33" height="33"/>
<rect x="379" y="102.2" fill="#8E9CAB" width="33" height="33"/>
<rect x="418.5" y="102.2" fill="#8E9CAB" width="33" height="33"/>
<rect x="458.1" y="102.2" fill="#8E9CAB" width="33" height="33"/>
<rect x="497.6" y="102.2" fill="#8E9CAB" width="33" height="33"/>
<rect x="339.4" y="62.6" fill="#8E9CAB" width="33" height="33"/>
<rect x="379" y="62.6" fill="#8E9CAB" width="33" height="33"/>
<rect x="418.5" y="62.6" fill="#8E9CAB" width="33" height="33"/>
<rect x="458.1" y="62.6" fill="#8E9CAB" width="33" height="33"/>
<rect x="497.6" y="62.6" fill="#8E9CAB" width="33" height="33"/>
</svg>
