<?xml version="1.0" encoding="utf-8"?>
<svg version="1.2" baseProfile="tiny" xmlns="http://www.w3.org/2000/svg" xmlns:xlink="http://www.w3.org/1999/xlink" x="0px" y="0px" width="280px" height="400px" viewBox="0 0 280 400" xml:space="preserve" fill='#ffffff'>
	<rect x="83.7" y="361.2" width="33" height="33"/>
	<rect x="162.8" y="361.2" width="33" height="33"/>
	<rect x="83.7" y="321.7" width="33" height="33"/>
	<rect x="162.8" y="321.7" width="33" height="33"/>
	<rect x="44.1" y="282.1" width="33" height="33"/>
	<rect x="83.7" y="282.1" width="33" height="33"/>
	<rect x="123.2" y="282.1" width="33" height="33"/>
	<rect x="162.8" y="282.1" width="33" height="33"/>
	<rect x="202.3" y="282.1" width="33" height="33"/>
	<rect x="44.1" y="242.6" width="33" height="33"/>
	<rect x="83.7" y="242.6" width="33" height="33"/>
	<rect x="123.2" y="242.6" width="33" height="33"/>
	<rect x="162.8" y="242.6" width="33" height="33"/>
	<rect x="202.3" y="242.6" width="33" height="33"/>
	<rect x="4.5" y="203" width="33" height="33"/>
	<rect x="241.8" y="204" width="33" height="33"/>
	<rect x="44.1" y="203" width="33" height="33"/>
	<rect x="83.7" y="203" width="33" height="33"/>
	<rect x="123.2" y="203" width="33" height="33"/>
	<rect x="162.8" y="203" width="33" height="33"/>
	<rect x="202.3" y="203" width="33" height="33"/>
	<rect x="4.5" y="163.5" width="33" height="33"/>
	<rect x="241.8" y="164.5" width="33" height="33"/>
	<rect x="44.1" y="163.5" width="33" height="33"/>
	<rect x="83.7" y="163.5" width="33" height="33"/>
	<rect x="123.2" y="163.5" width="33" height="33"/>
	<rect x="162.8" y="163.5" width="33" height="33"/>
	<rect x="202.3" y="163.5" width="33" height="33"/>
	<rect x="44.1" y="84.4" width="33" height="33"/>
	<rect x="83.7" y="84.4" width="33" height="33"/>
	<rect x="123.2" y="84.4" width="33" height="33"/>
	<rect x="162.8" y="84.4" width="33" height="33"/>
	<rect x="202.3" y="84.4" width="33" height="33"/>
	<rect x="44.1" y="45.6" width="33" height="33"/>
	<rect x="123.2" y="45.6" width="33" height="33"/>
	<rect x="202.3" y="45.6" width="33" height="33"/>
	<rect x="83.7" y="5.3" width="33" height="33"/>
	<rect x="123.2" y="5.3" width="33" height="33"/>
	<rect x="162.8" y="5.3" width="33" height="33"/>
	<rect x="241.8" y="242.6" width="33" height="33"/>
	<rect x="4.5" y="242.6" width="33" height="33"/>
</svg>
