<?xml version="1.0" encoding="utf-8"?>
<svg version="1.2" baseProfile="tiny" xmlns="http://www.w3.org/2000/svg" xmlns:xlink="http://www.w3.org/1999/xlink" x="0px" y="0px" width="270px" height="270px" viewBox="0 0 270 270" xml:space="preserve" fill='#ffffff'>
<rect x="77.9" y="197.6" width="33" height="33"/>
<rect x="117.4" y="197.6" width="33" height="33"/>
<rect x="157" y="197.6" width="33" height="33"/>
<rect x="38.3" y="158.1" width="33" height="33"/>
<rect x="77.9" y="158.1" width="33" height="33"/>
<rect x="157" y="158.1" width="33" height="33"/>
<rect x="196.5" y="158.1" width="33" height="33"/>
<rect x="38.3" y="118.5" width="33" height="33"/>
<rect x="196.5" y="118.5" width="33" height="33"/>
<rect x="38.3" y="79" width="33" height="33"/>
<rect x="77.9" y="79" width="33" height="33"/>
<rect x="157" y="79" width="33" height="33"/>
<rect x="196.5" y="79" width="33" height="33"/>
<rect x="77.9" y="40.2" width="33" height="33"/>
<rect x="117.4" y="40.2" width="33" height="33"/>
<rect x="157" y="40.2" width="33" height="33"/>
</svg>
