<?xml version="1.0" encoding="utf-8"?>
<svg version="1.2" baseProfile="tiny" xmlns="http://www.w3.org/2000/svg" xmlns:xlink="http://www.w3.org/1999/xlink" x="0px" y="0px" width="350px" height="350px" viewBox="0 0 350 350" xml:space="preserve" fill='#ffffffbf'>
	<rect x="0.3" y="317.2" width="33" height="33"/>
	<rect x="39.9" y="317.2" width="33" height="33"/>
	<rect x="79.4" y="317.2" width="33" height="33"/>
	<rect x="119" y="317.2" width="33" height="33"/>
	<rect x="158.5" y="317.2" width="33" height="33"/>
	<rect x="0.3" y="277.6" width="33" height="33"/>
	<rect x="39.9" y="277.6" width="33" height="33"/>
	<rect x="79.4" y="277.6" width="33" height="33"/>
	<rect x="119" y="277.6" width="33" height="33"/>
	<rect x="158.5" y="277.6" width="33" height="33"/>
	<rect x="39.9" y="238.1" width="33" height="33"/>
	<rect x="79.4" y="238.1" width="33" height="33"/>
	<rect x="119" y="238.1" width="33" height="33"/>
	<rect x="79.4" y="198.5" width="33" height="33"/>
	<rect x="39.9" y="159" width="33" height="33"/>
	<rect x="79.4" y="159" width="33" height="33"/>
	<rect x="119" y="159" width="33" height="33"/>
	<rect x="39.9" y="120.2" width="33" height="33"/>
	<rect x="79.4" y="120.2" width="33" height="33"/>
	<rect x="119" y="120.2" width="33" height="33"/>
	<rect x="39.9" y="79.9" width="33" height="33"/>
	<rect x="79.4" y="79.9" width="33" height="33"/>
	<rect x="119" y="79.9" width="33" height="33"/>
	<rect x="39.9" y="40.3" width="33" height="33"/>
	<rect x="79.4" y="40.3" width="33" height="33"/>
	<rect x="119" y="40.3" width="33" height="33"/>
	<rect x="198.1" y="277.6" width="33" height="33"/>
	<rect x="237.6" y="277.6" width="33" height="33"/>
	<rect x="277.2" y="277.6" width="33" height="33"/>
	<rect x="316.7" y="277.6" width="33" height="33"/>
	<rect x="158.5" y="238" width="33" height="33"/>
	<rect x="198.1" y="238" width="33" height="33"/>
	<rect x="237.6" y="238" width="33" height="33"/>
	<rect x="277.2" y="238" width="33" height="33"/>
	<rect x="316.7" y="238" width="33" height="33"/>
	<rect x="198.1" y="198.5" width="33" height="33"/>
	<rect x="237.6" y="198.5" width="33" height="33"/>
	<rect x="277.2" y="198.5" width="33" height="33"/>
	<rect x="237.6" y="158.9" width="33" height="33"/>
	<rect x="198.1" y="119.4" width="33" height="33"/>
	<rect x="237.6" y="119.4" width="33" height="33"/>
	<rect x="277.2" y="119.4" width="33" height="33"/>
	<rect x="198.1" y="80.6" width="33" height="33"/>
	<rect x="237.6" y="80.6" width="33" height="33"/>
	<rect x="277.2" y="80.6" width="33" height="33"/>
	<rect x="198.1" y="40.3" width="33" height="33"/>
	<rect x="237.6" y="40.3" width="33" height="33"/>
	<rect x="277.2" y="40.3" width="33" height="33"/>
	<rect x="198.1" y="0.7" width="33" height="33"/>
	<rect x="237.6" y="0.7" width="33" height="33"/>
	<rect x="277.2" y="0.7" width="33" height="33"/>
</svg>
