<?xml version="1.0" encoding="utf-8"?>
<svg version="1.2" baseProfile="tiny" xmlns="http://www.w3.org/2000/svg" xmlns:xlink="http://www.w3.org/1999/xlink" x="0px" y="0px" width="280px" height="280px" viewBox="0 0 280 280" xml:space="preserve" fill='#ffffff'>
	<rect x="121.6" y="245.2" width="33" height="33"/>
	<rect x="200.7" y="205.6" width="33" height="33"/>
	<rect x="82.1" y="205.6" width="33" height="33"/>
	<rect x="121.6" y="205.6" width="33" height="33"/>
	<rect x="240.3" y="166.1" width="33" height="33"/>
	<rect x="3" y="166.1" width="33" height="33"/>
	<rect x="42.5" y="166.1" width="33" height="33"/>
	<rect x="82.1" y="166.1" width="33" height="33"/>
	<rect x="121.6" y="166.1" width="33" height="33"/>
	<rect x="240.3" y="126.5" width="33" height="33"/>
	<rect x="3" y="126.5" width="33" height="33"/>
	<rect x="42.5" y="126.5" width="33" height="33"/>
	<rect x="82.1" y="126.5" width="33" height="33"/>
	<rect x="121.6" y="126.5" width="33" height="33"/>
	<rect x="240.3" y="87" width="33" height="33"/>
	<rect x="3" y="87" width="33" height="33"/>
	<rect x="42.5" y="87" width="33" height="33"/>
	<rect x="82.1" y="87" width="33" height="33"/>
	<rect x="121.6" y="87" width="33" height="33"/>
	<rect x="200.7" y="48.2" width="33" height="33"/>
	<rect x="82.1" y="48.2" width="33" height="33"/>
	<rect x="121.6" y="48.2" width="33" height="33"/>
	<rect x="121.6" y="7.9" width="33" height="33"/>
</svg>
