<?xml version="1.0" encoding="utf-8"?>
<svg version="1.2" baseProfile="tiny" xmlns="http://www.w3.org/2000/svg" xmlns:xlink="http://www.w3.org/1999/xlink" x="0px" y="0px" width="270px" height="350px" viewBox="0 0 270 350" xml:space="preserve">
	<g fill='#ffffff'>
		<rect x="79" y="237.7" width="33" height="33"/>
		<rect x="118.5" y="237.7" width="33" height="33"/>
		<rect x="158.1" y="237.7" width="33" height="33"/>
		<rect x="79" y="158.6" width="33" height="33"/>
		<rect x="118.5" y="158.6" width="33" height="33"/>
		<rect x="158.1" y="158.6" width="33" height="33"/>
		<rect x="79" y="79.5" width="33" height="33"/>
		<rect x="118.5" y="79.5" width="33" height="33"/>
		<rect x="158.1" y="79.5" width="33" height="33"/>
	</g>
	<g fill='#ffffff'>
		<rect x="39.4" y="316.8" width="33" height="33"/>
		<rect x="79" y="316.8" width="33" height="33"/>
		<rect x="118.5" y="316.8" width="33" height="33"/>
		<rect x="158.1" y="316.8" width="33" height="33"/>
		<rect x="197.6" y="316.8" width="33" height="33"/>
		<rect x="-0.1" y="277.2" width="33" height="33"/>
		<rect x="237.2" y="277.2" width="33" height="33"/>
		<rect x="-0.1" y="237.7" width="33" height="33"/>
		<rect x="237.2" y="237.7" width="33" height="33"/>
		<rect x="-0.1" y="198.1" width="33" height="33"/>
		<rect x="237.2" y="198.1" width="33" height="33"/>
		<rect x="-0.1" y="158.6" width="33" height="33"/>
		<rect x="237.2" y="158.6" width="33" height="33"/>
		<rect x="-0.1" y="119.8" width="33" height="33"/>
		<rect x="237.2" y="119.8" width="33" height="33"/>
		<rect x="-0.1" y="79.5" width="33" height="33"/>
		<rect x="237.2" y="79.5" width="33" height="33"/>
		<rect x="-0.1" y="39.9" width="33" height="33"/>
		<rect x="237.2" y="39.9" width="33" height="33"/>
		<rect x="39.4" y="0.4" width="33" height="33"/>
		<rect x="79" y="0.4" width="33" height="33"/>
		<rect x="118.5" y="0.4" width="33" height="33"/>
		<rect x="158.1" y="0.4" width="33" height="33"/>
		<rect x="197.6" y="0.4" width="33" height="33"/>
	</g>
</svg>
