<?xml version="1.0" encoding="utf-8"?>
<svg version="1.2" baseProfile="tiny" xmlns="http://www.w3.org/2000/svg" xmlns:xlink="http://www.w3.org/1999/xlink" x="0px" y="0px" width="270px" height="310px" viewBox="0 0 270 310" xml:space="preserve">
	<g fill='#ffffff'> 
		<rect x="39.4" y="277.9" width="33" height="33"/>
		<rect x="79" y="277.9" width="33" height="33"/>
		<rect x="118.5" y="277.9" width="33" height="33"/>
		<rect x="158.1" y="277.9" width="33" height="33"/>
		<rect x="197.6" y="277.9" width="33" height="33"/>
		<rect x="39.4" y="238.3" width="33" height="33"/>
		<rect x="79" y="238.3" width="33" height="33"/>
		<rect x="118.5" y="238.3" width="33" height="33"/>
		<rect x="158.1" y="238.3" width="33" height="33"/>
		<rect x="197.6" y="238.3" width="33" height="33"/>
		<rect x="79" y="198.8" width="33" height="33"/>
		<rect x="118.5" y="198.8" width="33" height="33"/>
		<rect x="158.1" y="198.8" width="33" height="33"/>
		<rect x="118.5" y="159.2" width="33" height="33"/>
		<rect x="79" y="119.7" width="33" height="33"/>
		<rect x="118.5" y="119.7" width="33" height="33"/>
		<rect x="158.1" y="119.7" width="33" height="33"/>
		<rect x="79" y="80.9" width="33" height="33"/>
		<rect x="118.5" y="80.9" width="33" height="33"/>
		<rect x="158.1" y="80.9" width="33" height="33"/>
		<rect x="79" y="40.6" width="33" height="33"/>
		<rect x="118.5" y="40.6" width="33" height="33"/>
		<rect x="158.1" y="40.6" width="33" height="33"/>
		<rect x="79" y="1" width="33" height="33"/>
		<rect x="118.5" y="1" width="33" height="33"/>
		<rect x="158.1" y="1" width="33" height="33"/>
	</g>
</svg>
