<?xml version="1.0" encoding="utf-8"?>
<svg version="1.2" baseProfile="tiny" xmlns="http://www.w3.org/2000/svg" xmlns:xlink="http://www.w3.org/1999/xlink" x="0px" y="0px" width="270px" height="270px" viewBox="0 0 270 270" xml:space="preserve" fill='#ffffff66'>
	<rect x="39.4" y="197.2" width="33" height="33"/>
	<rect x="78.9" y="197.2" width="33" height="33"/>
	<rect x="118.5" y="197.2" width="33" height="33"/>
	<rect x="158" y="197.2" width="33" height="33"/>
	<rect x="197.6" y="197.2" width="33" height="33"/>
	<rect x="39.4" y="157.7" width="33" height="33"/>
	<rect x="197.6" y="157.7" width="33" height="33"/>
	<rect x="39.4" y="118.1" width="33" height="33"/>
	<rect x="197.6" y="118.1" width="33" height="33"/>
	<rect x="39.4" y="78.6" width="33" height="33"/>
	<rect x="197.6" y="78.6" width="33" height="33"/>
	<rect x="39.4" y="39.8" width="33" height="33"/>
	<rect x="78.9" y="39.8" width="33" height="33"/>
	<rect x="118.5" y="39.8" width="33" height="33"/>
	<rect x="158" y="39.8" width="33" height="33"/>
	<rect x="197.6" y="39.8" width="33" height="33"/>
</svg>
