<?xml version="1.0" encoding="utf-8"?>
<svg version="1.2" baseProfile="tiny" xmlns="http://www.w3.org/2000/svg" xmlns:xlink="http://www.w3.org/1999/xlink" x="0px" y="0px" width="270px" height="350px" viewBox="0 0 270 350" xml:space="preserve" fill="#ffffff">
	<rect x="217.4" y="296.9" width="33" height="33"/>
	<rect x="19.6" y="296.9" width="33" height="33"/>
	<rect x="59.2" y="257.4" width="33" height="33"/>
	<rect x="177.8" y="257.4" width="33" height="33"/>
	<rect x="98.7" y="217.8" width="33" height="33"/>
	<rect x="138.3" y="217.8" width="33" height="33"/>
	<rect x="59.2" y="178.3" width="33" height="33"/>
	<rect x="98.7" y="178.3" width="33" height="33"/>
	<rect x="138.3" y="178.3" width="33" height="33"/>
	<rect x="177.8" y="178.3" width="33" height="33"/>
	<rect x="217.4" y="138.7" width="33" height="33"/>
	<rect x="19.6" y="138.7" width="33" height="33"/>
	<rect x="217.4" y="99.2" width="33" height="33"/>
	<rect x="19.6" y="99.2" width="33" height="33"/>
	<rect x="217.4" y="60.4" width="33" height="33"/>
	<rect x="19.6" y="60.4" width="33" height="33"/>
	<rect x="59.2" y="20.1" width="33" height="33"/>
	<rect x="98.7" y="20.1" width="33" height="33"/>
	<rect x="138.3" y="20.1" width="33" height="33"/>
	<rect x="177.8" y="20.1" width="33" height="33"/>
</svg>
